<?xml version="1.0" standalone="no"?>
<!DOCTYPE svg PUBLIC "-//W3C//DTD SVG 20010904//EN"
 "http://www.w3.org/TR/2001/REC-SVG-20010904/DTD/svg10.dtd">
<svg version="1.0" xmlns="http://www.w3.org/2000/svg"
 width="1080.000000pt" height="1080.000000pt" viewBox="0 0 1080.000000 1080.000000"
 preserveAspectRatio="xMidYMid meet">
<metadata>
Created by potrace 1.14, written by Peter Selinger 2001-2017
</metadata>
<g transform="translate(0.000000,1080.000000) scale(0.100000,-0.100000)"
fill="#000000" stroke="none">
<path d="M3770 8772 c0 -4 -16 -6 -35 -4 -19 2 -42 -1 -50 -8 -12 -10 -15 -10
-15 0 0 9 -4 9 -12 3 -7 -6 -20 -10 -28 -10 -41 0 -198 -21 -220 -30 -8 -3
-28 -7 -45 -9 -51 -6 -70 -10 -81 -16 -6 -4 -23 -9 -38 -12 -15 -3 -34 -10
-42 -17 -7 -6 -21 -9 -29 -5 -9 3 -13 2 -10 -3 3 -5 -11 -15 -30 -22 -19 -7
-35 -19 -35 -27 0 -7 -4 -11 -9 -8 -11 7 -87 -62 -83 -76 1 -5 -2 -7 -8 -3 -5
3 -13 -2 -17 -11 -7 -18 -14 -28 -63 -81 -16 -18 -27 -33 -25 -33 3 0 -2 -8
-11 -19 -20 -22 -54 -117 -46 -125 3 -3 -7 -6 -21 -6 -15 0 -27 5 -27 11 0 5
-4 7 -10 4 -6 -3 -7 1 -4 9 3 9 1 16 -5 16 -6 0 -11 -4 -11 -9 0 -5 -8 -12
-18 -15 -18 -6 -52 -65 -67 -115 -5 -18 -4 -22 5 -16 10 6 11 4 4 -6 -10 -16
-12 -159 -2 -159 8 0 3 -34 -7 -50 -4 -6 -11 -8 -16 -5 -5 4 -9 1 -9 -4 0 -6
-20 -16 -45 -22 -25 -6 -43 -15 -40 -19 3 -4 -5 -10 -17 -13 -19 -5 -20 -8 -7
-23 9 -12 10 -15 2 -10 -7 4 -13 2 -13 -3 0 -6 13 -11 29 -11 17 0 33 -4 36
-10 3 -5 17 -10 31 -10 21 0 29 -15 14 -30 -3 -3 -16 -22 -30 -42 -13 -20 -29
-34 -35 -31 -5 4 -7 3 -3 -1 3 -4 1 -24 -7 -45 -15 -45 -16 -121 -1 -140 9
-12 8 -13 -2 -7 -11 7 -12 4 -3 -11 5 -11 10 -28 10 -39 0 -10 3 -35 5 -54 3
-19 8 -55 11 -80 8 -59 12 -85 14 -85 1 0 4 -16 7 -35 2 -19 7 -46 10 -60 11
-40 14 -54 17 -75 1 -11 8 -26 15 -33 7 -8 10 -18 7 -23 -4 -5 -3 -15 2 -21 4
-7 9 -24 11 -38 2 -13 6 -27 10 -30 4 -3 9 -25 10 -50 2 -25 7 -47 10 -50 4
-3 8 -23 10 -45 2 -22 9 -46 15 -54 10 -12 9 -13 -2 -6 -11 6 -12 5 -5 -6 4
-8 10 -21 11 -29 2 -8 5 -28 8 -45 3 -16 8 -46 11 -65 3 -19 8 -42 11 -50 3
-8 7 -27 8 -43 1 -15 6 -32 12 -38 7 -7 8 -22 3 -40 -5 -16 -5 -31 -1 -33 4
-3 6 -26 5 -53 0 -26 1 -52 4 -58 3 -5 7 -23 8 -40 1 -16 2 -30 3 -30 5 0 14
-61 15 -97 1 -20 3 -34 5 -32 3 2 13 -23 23 -56 18 -56 69 -146 93 -162 34
-22 76 -72 71 -84 -3 -8 -2 -14 3 -14 5 0 7 -10 7 -22 -1 -13 1 -27 5 -33 4
-5 9 -21 11 -35 1 -14 6 -27 10 -30 4 -3 9 -16 11 -28 2 -12 6 -25 10 -28 4
-4 7 -18 7 -31 0 -16 4 -22 12 -17 7 4 8 3 4 -4 -11 -18 21 -82 46 -91 13 -5
27 -6 32 -3 5 3 6 0 2 -6 -4 -7 -1 -12 7 -12 28 0 40 -27 53 -120 3 -19 9 -37
14 -38 6 -2 8 -7 5 -11 -6 -10 111 -132 119 -124 3 3 6 2 6 -4 0 -5 22 -25 50
-44 27 -19 50 -37 50 -41 0 -5 7 -8 15 -8 9 0 18 -7 21 -15 4 -8 10 -13 14
-10 4 3 10 -2 14 -10 3 -8 12 -15 20 -15 7 0 16 -7 20 -15 3 -8 10 -15 16 -15
16 0 90 -81 84 -91 -3 -5 0 -9 7 -9 7 0 2 -11 -10 -24 -13 -14 -31 -24 -40
-24 -9 0 -27 -3 -41 -7 -14 -4 -41 -9 -60 -11 -63 -9 -69 -10 -76 -17 -4 -4
-13 -2 -20 4 -9 7 -19 7 -31 0 -11 -5 -25 -6 -33 -1 -9 5 -20 5 -27 -2 -8 -6
-16 -8 -19 -5 -3 3 -19 1 -35 -3 -19 -6 -29 -5 -29 2 0 7 -4 7 -12 1 -7 -5
-32 -9 -55 -9 -22 1 -39 -2 -36 -6 2 -5 -9 -8 -26 -8 -16 0 -33 -5 -36 -11 -4
-6 -13 -8 -21 -5 -8 3 -14 2 -14 -2 0 -4 -15 -14 -32 -21 -51 -22 -131 -73
-150 -95 -10 -10 -18 -16 -18 -11 0 4 -17 -8 -38 -26 -62 -55 -92 -79 -97 -79
-3 0 -16 -10 -31 -23 -14 -12 -27 -20 -29 -17 -2 3 -11 -4 -19 -15 -9 -11 -16
-17 -16 -13 0 4 -11 -3 -24 -15 -13 -13 -37 -29 -53 -37 -33 -17 -135 -89
-146 -104 -4 -6 -5 -19 -3 -28 2 -10 0 -21 -6 -24 -5 -3 -8 -15 -5 -25 3 -11
2 -20 -1 -20 -4 -1 -32 -3 -62 -5 -30 -2 -57 -9 -58 -14 -2 -6 -8 -8 -12 -5
-12 7 -100 -17 -100 -28 0 -4 -4 -5 -10 -2 -5 3 -19 1 -30 -5 -15 -8 -20 -8
-20 2 0 9 -3 9 -10 -2 -8 -13 -10 -12 -11 5 -4 58 -10 89 -21 103 -11 13 -10
14 1 7 11 -6 13 -4 8 8 -6 17 -16 66 -22 112 -2 17 -4 30 -5 30 -1 0 -3 9 -5
20 -2 11 -7 36 -11 55 -10 48 -13 70 -15 103 -1 15 -5 27 -8 27 -3 0 -7 10 -8
23 -3 33 -8 51 -16 64 -4 6 -2 15 4 19 8 5 8 8 0 13 -6 4 -12 19 -13 34 -1 15
-6 27 -11 27 -5 0 -7 7 -3 15 3 8 0 20 -7 27 -7 7 -13 26 -14 42 -1 16 -6 32
-10 35 -4 3 -9 15 -10 26 -1 11 -3 27 -6 35 -2 8 -7 29 -11 45 -4 17 -10 37
-13 45 -4 8 -7 18 -8 23 -2 4 -4 9 -5 12 -1 3 -4 10 -5 15 -1 6 -3 11 -5 13
-1 1 -3 9 -5 17 -2 8 -10 34 -18 57 -9 22 -13 44 -10 47 4 3 2 6 -4 6 -5 0
-16 18 -23 40 -7 22 -18 40 -23 40 -6 0 -7 3 -4 7 4 3 1 13 -5 21 -22 26 -30
102 -10 102 7 0 10 5 7 10 -3 6 -1 10 4 10 6 0 11 7 11 15 0 8 4 15 9 15 5 0
12 16 15 35 4 20 10 34 14 31 4 -2 8 8 8 22 3 48 10 87 21 107 6 11 8 26 6 33
-3 6 -1 12 4 12 5 0 15 16 23 35 8 19 18 35 22 35 5 0 7 4 3 9 -3 6 3 14 12
20 13 7 14 10 4 11 -12 0 -12 3 1 18 8 9 21 32 29 50 8 17 17 32 21 32 5 0 8
7 8 16 0 8 6 22 14 30 8 8 13 23 11 34 -2 11 1 19 8 17 6 -1 13 8 15 21 2 12
8 22 13 22 5 0 8 3 7 8 0 4 7 24 16 45 15 34 14 88 -2 73 -3 -3 -16 1 -29 9
-13 9 -28 13 -33 10 -5 -3 -11 -2 -14 3 -4 7 -65 8 -73 2 -3 -3 -19 -7 -32 -9
-15 -2 -96 -85 -125 -129 -22 -32 -32 -40 -41 -32 -7 6 -12 19 -10 28 1 9 0
21 -3 27 -3 5 -7 23 -9 39 -2 17 -7 32 -11 35 -4 4 -8 13 -8 21 -1 8 -5 29 -8
45 -10 46 -17 87 -21 120 -2 17 -4 30 -5 30 -2 0 -6 35 -11 95 -2 25 -8 48
-14 52 -6 5 -5 8 3 8 7 0 10 5 7 10 -4 6 -8 43 -10 83 -2 40 -4 72 -5 72 -1 0
-2 23 -3 52 -1 28 -5 55 -9 58 -4 4 -3 16 3 26 7 14 6 19 -2 19 -8 0 -8 4 1
15 7 8 8 15 3 15 -5 0 -10 12 -10 28 0 15 -1 37 -2 50 -1 26 -66 93 -84 87 -7
-3 -25 -7 -41 -9 -15 -3 -34 -13 -42 -23 -15 -20 -29 -81 -21 -89 3 -4 2 -17
-3 -30 -5 -13 -6 -24 -2 -24 10 0 8 -42 -2 -58 -4 -7 -4 -12 1 -12 4 0 8 -30
9 -68 0 -66 8 -169 18 -247 3 -22 8 -72 10 -111 4 -72 0 -80 -31 -61 -6 4 -13
2 -15 -3 -2 -6 -13 -2 -25 9 -11 11 -24 17 -27 13 -4 -3 -13 -7 -20 -8 -23 -3
-66 -36 -60 -45 3 -5 0 -9 -6 -9 -6 0 -8 -4 -5 -10 3 -5 1 -10 -5 -10 -6 0 -9
-4 -6 -9 9 -13 -20 -21 -32 -9 -12 12 -82 18 -82 7 0 -15 -64 -47 -84 -42 -25
6 -35 6 -61 -1 -11 -2 -23 -5 -27 -5 -5 -1 -8 -8 -8 -17 0 -8 -4 -13 -9 -10
-10 6 -77 -121 -75 -141 1 -7 -2 -13 -8 -13 -5 0 -7 -4 -3 -9 3 -5 1 -12 -3
-15 -11 -7 -7 -67 6 -92 5 -10 10 -21 10 -24 -2 -14 15 -50 23 -50 5 0 8 -3 7
-7 -5 -14 24 -73 32 -68 4 3 7 -1 6 -8 -2 -20 48 -117 60 -117 7 0 14 -7 18
-15 3 -8 23 -18 46 -21 22 -4 40 -9 41 -13 0 -3 1 -34 1 -68 1 -35 5 -63 10
-63 5 0 7 -4 3 -9 -3 -5 2 -16 10 -25 9 -9 11 -17 5 -21 -6 -4 -2 -15 10 -27
11 -12 26 -34 32 -50 7 -15 16 -28 20 -28 5 0 8 -4 8 -10 0 -5 8 -19 18 -29
58 -65 85 -124 84 -186 -2 -77 -7 -119 -15 -132 -5 -7 -4 -13 0 -13 5 0 9 -13
8 -30 0 -16 -4 -30 -8 -30 -5 0 -5 -6 -1 -12 11 -18 12 -48 2 -48 -5 0 -6 -5
-2 -12 4 -7 9 -43 10 -80 2 -37 5 -84 8 -104 6 -33 14 -107 21 -194 2 -19 4
-35 5 -35 1 0 3 -16 5 -35 1 -19 6 -57 10 -85 5 -27 9 -63 11 -80 1 -16 3 -32
4 -35 3 -7 5 -19 14 -77 5 -29 11 -51 15 -49 3 2 7 -15 8 -37 1 -23 6 -43 12
-45 5 -2 8 -9 5 -17 -3 -7 0 -24 7 -37 7 -13 14 -30 15 -38 1 -8 10 -33 19
-55 8 -22 18 -48 21 -57 4 -10 11 -15 17 -11 5 3 8 2 4 -3 -3 -5 2 -25 10 -44
9 -19 15 -38 15 -42 -1 -5 2 -8 6 -8 5 0 19 -20 32 -45 13 -25 27 -45 32 -45
4 0 8 -7 8 -15 0 -9 7 -18 15 -21 8 -4 12 -10 9 -15 -3 -5 0 -9 5 -9 6 0 11
-7 11 -16 0 -8 4 -12 10 -9 5 3 10 2 10 -4 0 -10 22 -37 78 -95 23 -24 54 -43
85 -51 4 -2 8 -3 10 -5 1 -1 11 -3 22 -5 11 -1 34 -5 50 -9 17 -4 75 -9 129
-11 54 -3 101 -7 103 -9 3 -3 16 -1 29 4 17 7 24 6 24 -3 0 -8 3 -9 8 -1 4 6
25 11 47 12 22 1 51 4 65 7 14 3 39 7 55 10 52 8 64 11 71 18 4 4 18 7 31 7
13 0 23 4 23 9 0 5 9 7 20 4 12 -3 20 0 20 8 0 7 3 10 6 6 4 -3 22 0 41 8 42
18 49 15 57 -27 8 -42 29 -88 38 -88 5 0 8 -7 8 -16 0 -8 4 -13 9 -9 5 3 12 1
16 -4 3 -7 15 -7 29 -1 13 5 27 6 32 2 4 -4 4 -2 1 4 -3 6 3 21 14 33 12 12
22 28 23 34 1 7 7 21 14 33 8 16 8 24 0 32 -9 9 -9 12 1 12 7 0 11 6 8 13 -3
7 3 13 12 14 9 1 30 7 46 14 17 7 32 13 35 13 3 1 11 5 18 10 33 21 157 79
169 79 6 0 10 4 8 8 -3 3 10 13 28 20 17 7 56 28 85 46 29 18 57 33 62 33 12
0 44 -60 36 -68 -3 -3 -2 -10 2 -16 5 -6 15 -31 22 -56 7 -25 18 -51 24 -59 8
-11 8 -13 -1 -8 -6 4 -1 -14 12 -40 12 -27 21 -56 19 -66 -1 -10 1 -15 5 -13
12 8 35 -70 26 -84 -5 -9 -4 -11 3 -6 13 8 32 -30 37 -71 1 -13 8 -29 15 -38
7 -8 9 -15 5 -15 -4 0 -2 -7 5 -15 6 -8 9 -19 5 -25 -3 -5 -1 -10 4 -10 6 0
11 -9 11 -19 0 -11 5 -23 11 -26 6 -4 8 -13 5 -21 -3 -8 -1 -14 5 -14 6 0 7
-4 4 -10 -3 -5 -1 -10 4 -10 6 0 10 -3 10 -7 -4 -25 2 -43 13 -37 8 5 9 2 5
-9 -3 -9 -2 -19 4 -23 6 -3 8 -12 5 -20 -3 -8 -1 -14 5 -14 6 0 9 -7 5 -15 -3
-8 0 -14 7 -12 7 1 11 -4 10 -10 -2 -7 1 -13 7 -13 5 0 7 -6 4 -13 -3 -8 2
-20 10 -27 9 -7 13 -17 9 -23 -3 -5 -1 -7 4 -4 6 4 18 -8 26 -26 9 -17 18 -31
21 -29 15 6 26 1 20 -9 -4 -8 0 -8 15 0 16 9 21 9 21 -1 0 -9 3 -9 10 2 5 8
10 10 10 5 0 -14 50 -18 66 -5 7 7 15 7 18 2 3 -5 32 -8 63 -5 32 2 68 5 81 6
12 0 22 4 22 7 0 3 10 6 23 7 47 1 58 3 53 12 -4 5 2 8 11 6 10 -1 24 2 31 8
6 5 12 7 12 3 0 -3 20 5 44 19 24 13 47 21 51 17 5 -4 5 -2 2 4 -4 7 6 17 23
24 17 7 30 17 30 22 0 5 4 7 9 4 4 -3 19 3 31 14 13 11 29 20 37 20 8 0 21 7
30 15 8 8 19 13 24 10 5 -4 9 -1 9 4 0 6 3 10 8 9 7 -2 121 49 185 83 20 11
37 17 37 14 0 -4 7 1 16 9 8 9 19 14 24 11 5 -3 10 -2 12 2 4 11 110 63 126
63 6 0 12 4 12 9 0 8 37 24 53 22 4 -1 7 4 7 9 0 6 7 10 15 10 8 0 15 5 15 10
0 6 5 10 11 10 6 0 25 16 43 35 19 19 36 35 40 35 4 0 20 14 36 30 17 17 30
27 30 23 0 -4 4 -3 8 3 7 11 67 45 87 50 6 2 21 6 35 9 14 4 31 7 38 7 6 1 12
6 12 12 0 6 5 4 10 -4 8 -12 10 -12 10 -1 0 8 3 12 6 8 4 -3 21 0 39 8 19 7
36 11 39 7 3 -3 6 -1 6 5 0 6 8 10 18 10 27 0 82 24 82 36 0 6 7 2 16 -9 8
-10 12 -13 8 -5 -6 11 -3 13 12 7 10 -4 24 -9 29 -10 6 -1 15 -4 20 -7 6 -3
19 -5 30 -5 11 1 23 -3 27 -9 5 -6 8 -5 8 2 0 9 7 10 24 3 13 -5 26 -6 30 -3
3 3 19 7 36 9 17 2 39 8 49 13 10 6 21 7 25 4 3 -3 6 0 6 7 0 7 3 11 6 7 4 -3
19 0 35 9 16 8 32 14 35 13 4 0 10 4 14 11 4 6 13 12 21 13 8 2 20 6 27 10 6
5 17 5 24 1 6 -4 8 -3 4 4 -3 5 -2 12 4 14 6 2 4 24 -6 58 -8 30 -16 60 -18
65 -1 6 -8 37 -16 70 -7 33 -18 66 -23 73 -5 7 -7 15 -4 19 4 3 2 14 -4 25
-10 19 -19 48 -23 78 -1 9 -5 20 -9 27 -4 6 -8 23 -9 37 -1 14 -6 26 -11 26
-5 0 -7 6 -4 14 3 7 -1 25 -8 40 -8 15 -10 24 -5 21 5 -3 3 7 -5 21 -8 15 -12
31 -9 36 3 4 0 8 -5 8 -6 0 -11 16 -11 35 0 19 -5 35 -11 35 -6 0 -9 7 -5 15
3 8 -1 20 -8 27 -20 19 -8 51 18 43 33 -9 69 -16 96 -19 14 -1 30 -5 35 -8 6
-3 33 -9 60 -12 96 -11 128 -17 138 -23 6 -4 27 -8 46 -9 40 -3 77 -10 90 -18
5 -4 12 0 14 6 4 10 6 10 6 1 1 -8 14 -13 31 -13 17 0 30 -4 30 -10 0 -6 9 -6
26 0 16 7 23 7 19 0 -3 -6 3 -11 14 -11 21 -2 39 -5 44 -8 1 -2 13 -4 27 -6
32 -6 64 -13 68 -15 1 -2 5 -3 10 -4 65 -15 120 -29 132 -33 8 -4 17 -7 20 -7
18 -4 70 -30 70 -35 0 -4 9 -7 21 -8 11 -1 29 -12 40 -24 20 -23 42 -87 34
-99 -3 -4 -26 -6 -52 -3 -27 2 -54 5 -60 5 -7 1 -13 4 -13 8 0 9 -56 7 -66 -3
-4 -4 -16 -7 -26 -7 -10 0 -18 -6 -18 -12 0 -10 -2 -10 -8 0 -6 9 -14 7 -30
-8 -12 -12 -22 -16 -22 -11 0 11 -41 -4 -145 -53 -88 -42 -134 -62 -163 -71
-12 -3 -19 -11 -16 -17 4 -6 3 -8 -3 -5 -6 4 -19 0 -29 -8 -10 -8 -27 -15 -37
-15 -10 0 -15 -4 -12 -10 3 -5 -1 -10 -9 -10 -9 0 -16 -5 -16 -11 0 -5 -4 -8
-9 -5 -14 9 -21 -20 -8 -33 8 -8 15 -6 28 5 19 17 75 12 64 -6 -3 -6 -1 -10 5
-10 6 0 8 -6 4 -12 -4 -7 -4 -10 1 -6 4 4 14 3 22 -3 7 -6 13 -8 13 -3 0 5 4
3 9 -4 4 -8 27 -15 50 -15 22 -1 41 -5 41 -9 0 -5 20 -8 44 -8 25 0 47 -4 50
-8 5 -8 26 -11 104 -16 12 0 22 -4 22 -7 0 -3 15 -7 33 -7 32 -2 72 -9 72 -13
0 -1 11 -2 25 -3 14 -1 30 -4 35 -8 6 -3 21 -5 35 -4 14 1 31 -2 37 -7 7 -5
22 -7 33 -4 10 3 24 0 29 -7 5 -6 26 -11 45 -10 20 1 38 -1 41 -6 2 -4 16 -5
30 -2 14 2 25 0 25 -4 0 -5 17 -10 38 -12 73 -5 82 -6 82 -12 0 -4 6 -7 13 -7
6 -1 29 -4 50 -7 39 -6 95 -15 137 -21 14 -2 25 -4 25 -5 0 -2 23 -6 90 -14
50 -6 94 -15 120 -23 27 -9 57 -4 76 13 8 8 21 14 27 14 7 0 12 5 12 10 0 6 7
10 15 10 7 0 18 6 22 14 4 8 15 16 23 18 8 2 20 12 27 23 8 13 12 15 13 6 0
-9 9 -4 23 12 12 15 28 27 34 27 6 0 13 7 17 15 3 8 9 14 13 13 5 -2 19 7 33
20 13 12 30 22 37 22 7 0 13 4 13 9 0 5 11 12 24 15 16 4 23 12 21 23 -2 10
-4 24 -4 32 -1 7 -7 11 -16 7 -8 -3 -21 2 -30 10 -8 9 -15 13 -15 10 0 -4 -16
0 -35 8 -19 8 -35 12 -35 8 0 -4 -5 0 -10 8 -7 11 -10 11 -10 2 0 -8 -5 -10
-12 -5 -7 4 -16 8 -20 9 -5 1 -9 2 -10 3 -3 3 -24 6 -83 16 -22 3 -53 8 -70
11 -16 3 -42 5 -57 6 -16 1 -28 4 -28 8 0 3 -17 7 -37 9 -45 3 -88 9 -88 11 0
2 -36 9 -61 12 -21 2 -53 28 -34 28 12 0 9 22 -4 31 -5 4 -6 18 -2 32 l6 25
65 -13 c36 -6 65 -10 65 -7 0 2 6 0 13 -5 11 -8 24 -11 75 -15 6 -1 12 -4 12
-7 0 -3 10 -7 23 -7 33 -2 80 -10 99 -19 9 -4 22 -4 28 0 5 3 10 2 10 -4 0 -5
8 -10 18 -9 27 1 96 -13 102 -21 3 -3 21 -7 40 -9 35 -2 75 -9 75 -12 0 -1 14
-4 30 -6 45 -8 70 -12 70 -14 0 -2 34 -9 70 -14 17 -3 30 -5 30 -6 0 -3 42
-10 72 -13 18 -1 33 -5 33 -8 0 -3 6 -6 13 -6 6 0 30 -4 52 -8 22 -4 49 -8 61
-9 11 -2 25 -6 32 -10 7 -4 12 -5 12 -3 0 2 24 -1 53 -7 28 -7 61 -12 72 -12
11 1 22 -2 25 -5 3 -4 24 -9 48 -12 24 -2 48 -9 54 -15 6 -6 17 -8 24 -5 8 3
37 -1 66 -8 29 -7 61 -12 71 -11 9 0 17 -3 17 -7 0 -4 16 -8 36 -9 20 -2 63
-9 95 -17 33 -7 59 -11 59 -8 0 3 6 1 13 -5 7 -6 30 -12 50 -14 20 -1 37 -5
37 -8 0 -3 12 -6 28 -7 33 -3 77 -10 77 -12 0 -3 11 -5 70 -16 22 -4 48 -8 58
-8 9 -1 17 -6 17 -12 0 -5 5 -3 10 5 5 8 10 10 10 3 0 -6 11 -10 25 -8 14 1
25 -1 25 -4 0 -6 26 -11 68 -14 6 0 12 -4 12 -8 0 -4 14 -6 31 -5 16 1 32 -1
35 -6 3 -5 10 -6 15 -2 5 3 16 0 24 -6 8 -7 15 -10 15 -6 0 3 11 1 25 -4 14
-5 46 -12 72 -16 27 -3 55 -10 63 -14 8 -4 34 -10 58 -14 24 -3 47 -8 51 -10
4 -3 8 0 9 7 1 7 4 39 8 72 4 33 7 70 7 83 1 12 4 22 8 22 4 0 6 16 5 35 -1
19 2 35 5 35 4 0 7 17 6 38 -1 20 2 43 6 49 4 7 9 33 12 60 2 26 7 62 10 78 3
17 7 46 9 65 3 19 5 35 6 35 2 0 7 43 14 110 2 28 5 50 7 50 2 0 7 33 13 80 3
17 5 30 6 30 3 0 9 43 12 87 1 21 5 38 8 38 3 0 6 10 7 23 0 12 3 42 7 67 4
25 9 61 12 80 10 76 12 89 20 101 5 8 3 10 -5 4 -10 -6 -11 -3 -2 12 6 11 7
23 4 27 -3 3 -2 6 3 6 5 0 9 15 8 32 -1 18 3 47 7 63 4 17 9 48 12 71 2 23 7
46 11 52 3 6 2 14 -4 17 -7 5 -8 11 -1 19 5 6 8 24 7 39 -2 15 1 27 6 27 4 0
8 12 8 28 -1 15 2 47 5 72 4 25 7 57 8 73 0 15 5 27 11 27 6 0 4 5 -4 10 -8 5
-10 10 -4 10 5 0 11 17 12 38 4 52 6 65 16 81 7 10 5 12 -3 6 -10 -6 -11 -3
-3 11 5 11 10 33 11 49 2 31 8 80 11 80 1 0 3 29 6 64 3 35 9 71 14 81 6 11 5
21 -2 28 -9 9 -9 12 -1 12 6 0 11 15 12 33 1 32 9 102 11 102 1 0 3 12 5 28 3
19 0 25 -8 20 -9 -5 -9 -3 0 8 7 9 15 26 17 40 3 13 5 26 6 29 1 3 2 20 2 38
0 17 3 32 8 32 4 0 6 9 3 20 -3 11 1 28 8 37 10 12 10 14 2 9 -15 -8 -17 3 -3
24 6 9 5 20 -3 29 -9 12 -9 13 1 7 9 -5 12 6 12 43 0 31 4 51 11 51 8 0 8 4 0
14 -9 11 -9 15 1 19 10 4 10 7 -1 15 -9 7 -10 11 -2 13 11 4 19 48 24 136 1
24 5 43 8 43 4 0 7 15 8 33 1 45 6 80 13 92 3 6 4 19 2 29 -1 11 1 28 7 37 6
12 5 20 -2 25 -9 5 -6 11 6 21 11 7 13 13 6 13 -7 0 -9 5 -6 10 4 6 8 20 10
33 12 75 17 114 17 129 -1 10 3 20 8 23 6 3 6 15 0 29 -5 13 -6 27 -2 30 8 8
13 32 16 78 1 21 6 41 9 45 13 12 8 35 -5 27 -10 -6 -10 -5 -1 7 11 13 9 18
-10 27 -12 7 -33 14 -47 16 -14 3 -26 5 -27 7 -2 1 -6 2 -10 3 -37 7 -112 29
-127 37 -14 8 -16 7 -11 -3 6 -10 5 -11 -6 0 -7 6 -25 12 -40 12 -15 0 -31 5
-35 11 -3 6 -17 9 -30 6 -13 -2 -24 0 -24 4 0 5 -3 8 -7 8 -5 -1 -10 -1 -13 0
-12 5 -77 14 -97 13 -13 0 -23 4 -23 10 0 5 -4 7 -9 3 -5 -3 -12 -1 -15 3 -3
5 -15 8 -28 7 -13 -1 -29 2 -35 8 -7 5 -13 6 -13 2 0 -4 -8 -1 -17 6 -14 12
-16 12 -8 0 6 -11 5 -12 -6 -5 -8 4 -18 9 -24 10 -39 8 -74 15 -95 20 -14 3
-36 7 -50 9 -28 4 -65 13 -65 15 0 2 -40 7 -82 11 -18 2 -33 6 -33 10 0 3 -13
6 -29 7 -17 0 -40 6 -52 12 -16 9 -20 9 -14 0 6 -9 3 -9 -12 -2 -11 6 -30 12
-44 14 -13 2 -30 7 -38 12 -11 7 -12 6 -6 -5 7 -11 6 -12 -6 -3 -8 7 -30 14
-49 17 -19 4 -51 9 -70 13 -19 3 -39 7 -45 8 -5 1 -16 6 -24 10 -11 7 -12 6
-6 -5 8 -12 6 -12 -8 0 -9 7 -23 11 -32 8 -8 -4 -19 1 -24 11 -7 11 -11 12
-11 4 0 -8 -5 -10 -12 -6 -7 5 -28 9 -47 11 -18 1 -39 7 -46 13 -6 5 -15 7
-18 4 -3 -3 -11 -2 -18 2 -7 4 -22 8 -33 9 -46 4 -122 18 -131 23 -5 4 -18 5
-29 3 -10 -1 -16 2 -12 7 3 5 -5 7 -18 5 -13 -3 -33 0 -45 6 -16 9 -21 9 -21
0 0 -8 -4 -8 -13 -1 -7 6 -24 12 -37 14 -14 2 -31 7 -39 12 -11 7 -12 6 -6 -5
8 -12 6 -12 -8 -1 -9 8 -21 11 -26 8 -5 -4 -12 -2 -16 3 -3 6 -12 8 -20 4 -8
-3 -15 -1 -15 4 0 5 -15 8 -32 8 -18 0 -40 3 -48 6 -16 8 -92 22 -122 23 -10
0 -18 3 -18 7 0 3 -12 6 -27 7 -16 0 -31 1 -35 2 -5 1 -12 4 -18 5 -5 1 -11 3
-12 5 -4 2 -22 6 -68 14 -19 3 -46 8 -60 11 -14 3 -37 6 -52 7 -16 1 -28 5
-28 8 0 3 -17 7 -37 8 -21 2 -39 7 -41 12 -2 6 -11 6 -23 0 -13 -7 -19 -7 -19
0 0 5 -13 10 -28 10 -16 0 -32 3 -36 7 -4 4 -17 8 -29 9 -26 2 -74 11 -137 25
-54 13 -88 20 -115 23 -11 2 -28 7 -37 11 -9 4 -21 4 -26 1 -5 -3 -17 1 -28 8
-10 8 -24 12 -31 9 -7 -3 -21 1 -30 8 -13 11 -15 11 -9 1 6 -10 1 -11 -21 -6
-15 4 -30 10 -33 13 -3 3 -16 6 -30 5 -14 0 -44 5 -67 12 -32 9 -43 9 -43 1 0
-9 -3 -8 -8 0 -4 7 -22 13 -40 15 -18 1 -32 5 -32 8 0 3 -15 6 -33 8 -30 2
-66 8 -77 12 -3 1 -9 2 -14 1 -4 -1 -14 3 -21 9 -10 8 -15 8 -20 0 -5 -8 -10
-8 -20 0 -7 6 -27 12 -44 13 -17 1 -31 5 -31 8 0 3 -11 5 -25 4 -14 -2 -25 1
-25 6 0 5 -3 8 -7 7 -13 -4 -110 12 -116 19 -4 3 -24 7 -44 9 -40 3 -88 10
-126 19 -12 2 -35 7 -52 11 -16 3 -37 8 -45 11 -8 3 -24 7 -35 9 -11 1 -33 5
-50 9 -16 3 -46 8 -65 11 -19 3 -42 8 -50 11 -8 3 -26 7 -40 9 -133 17 -140
19 -141 45 -2 19 -5 37 -8 42 -1 1 -4 17 -7 35 -2 18 -9 42 -14 53 -6 10 -8
19 -6 19 3 0 1 12 -5 28 -6 15 -12 36 -14 47 -8 42 -17 101 -19 115 -6 36 -30
100 -38 100 -5 0 -7 4 -4 9 14 23 -106 108 -154 109 -41 1 -121 11 -129 17 -5
3 -13 1 -16 -5 -5 -8 -11 -8 -20 0 -8 7 -19 9 -25 5 -6 -4 -21 0 -33 7 -31 20
-59 30 -52 18 3 -6 1 -10 -5 -10 -6 0 -9 -4 -6 -9 4 -5 -3 -7 -14 -4 -11 3
-20 9 -20 12 0 8 -19 11 -62 11 -16 0 -28 4 -28 10 0 5 -5 10 -11 10 -5 0 -8
-3 -6 -7 3 -5 -5 -8 -18 -8 -13 0 -21 4 -17 9 3 5 -1 5 -9 0 -18 -12 -89 -12
-82 0 3 5 0 6 -8 4 -8 -3 -23 2 -33 11 -11 9 -16 10 -12 4 12 -21 -5 -15 -28
10 -11 12 -25 24 -31 26 -30 10 -34 14 -29 22 3 5 -1 6 -9 3 -8 -3 -22 2 -30
11 -19 18 -77 29 -77 14 0 -6 -4 -7 -10 -4 -6 3 -7 -1 -4 -10 4 -10 2 -14 -8
-10 -9 4 -14 -2 -15 -17 -1 -13 -12 -31 -23 -40 -12 -10 -19 -22 -16 -27 4 -6
-4 -8 -20 -5 -16 3 -23 1 -19 -6 3 -6 0 -7 -9 -4 -9 3 -13 11 -9 18 4 6 0 6
-9 -2 -16 -13 -26 -12 -107 6 -24 6 -50 8 -57 5 -8 -3 -14 0 -14 7 0 9 -3 10
-13 1 -8 -6 -17 -8 -20 -4 -4 3 -21 7 -39 8 -59 5 -162 16 -198 22 -19 3 -47
7 -62 7 -16 1 -28 4 -28 7 0 4 -13 5 -30 4 -16 -1 -30 2 -30 7 0 6 -7 8 -15 4
-8 -3 -15 -1 -15 4 0 6 -6 10 -13 10 -8 0 -28 7 -45 16 -18 8 -36 13 -41 10
-5 -4 -11 -2 -13 4 -2 6 -18 11 -36 13 -17 1 -32 4 -32 7 0 3 -17 7 -37 8 -21
2 -50 5 -65 8 -16 2 -28 1 -28 -4z"/>
</g>
</svg>
